<!-- <svg xmlns="http://www.w3.org/2000/svg" width="109.124" height="18" viewBox="0 0 109.124 18">
  <g id="Group_2829" data-name="Group 2829" transform="translate(182 -388.848)">
    <path id="Path_2690" data-name="Path 2690" d="M-182,397l2.072.026c1.742.021,3.491-.051,5.224.085a5.2,5.2,0,0,1,4.8,4.161,5.222,5.222,0,0,1-4.423,6.484,21.662,21.662,0,0,1-3.422.117c-.393,0-.486.124-.482.5.019,1.7.008,3.406.008,5.109v.534H-182Zm3.832,7.669c.47,0,.9.017,1.318,0a10.449,10.449,0,0,0,1.781-.153,1.944,1.944,0,0,0,1.527-1.95,1.974,1.974,0,0,0-1.293-2.04,10.748,10.748,0,0,0-3.332-.229Z" transform="translate(0 -7.5)" fill="#0d1136"/>
    <path id="Path_2691" data-name="Path 2691" d="M1096.974,464.038a4.269,4.269,0,0,0-2.013-.019,2.521,2.521,0,0,0-1.9,2.431c-.069,1.741-.047,3.485-.063,5.227,0,.2,0,.4,0,.627h-3.581V460.482h3.466v1.425a3.266,3.266,0,0,1,2.349-1.477,10.946,10.946,0,0,1,1.74.013Z" transform="translate(-1169.85 -65.83)" fill="#3da2ff"/>
    <path id="Path_2692" data-name="Path 2692" d="M429.151,397.27c.2,0,.358,0,.516,0,2.236.02,4.478-.064,6.7.089a4.412,4.412,0,0,1,4.283,3.585,3.876,3.876,0,0,1-2.182,4.425.4.4,0,0,0-.089.06,11.028,11.028,0,0,1,1.515.929,4.339,4.339,0,0,1,.764,5.431,4.761,4.761,0,0,1-4.195,2.425c-2.393.084-4.791.027-7.187.03a.546.546,0,0,1-.13-.038Zm3.663,13.9c.727,0,1.416,0,2.1,0a7.083,7.083,0,0,0,.8-.033,1.932,1.932,0,0,0,1.81-1.8,1.816,1.816,0,0,0-1.406-2c-1.078-.164-2.184-.155-3.305-.222Zm0-7.1c.759,0,1.488.019,2.216-.009a3.119,3.119,0,0,0,.93-.193,1.65,1.65,0,0,0,1.092-1.685,1.567,1.567,0,0,0-1.21-1.634c-.987-.16-2-.159-3.028-.229Z" transform="translate(-562.328 -7.744)" fill="#3da2ff"/>
    <path id="Path_2693" data-name="Path 2693" d="M257.146,402.656c.848-.935,1.761-1.82,2.525-2.819a2.548,2.548,0,0,1,2.5-1.114c1.025.1,2.066.021,3.208.021l-4.634,4.982,4.734,6.9c-1.3,0-2.519-.03-3.737.014a1.069,1.069,0,0,1-1.08-.577c-.764-1.214-1.583-2.393-2.416-3.639-.4.436-.781.836-1.138,1.258-.071.084-.058.252-.059.382,0,.837,0,1.673,0,2.536h-3.567V393.328h3.554v9.3Z" transform="translate(-400.688 -4.122)" fill="#0d1136"/>
    <path id="Path_2694" data-name="Path 2694" d="M613.558,468.808h-3.195l-.126-1.174a12.43,12.43,0,0,1-1.185.968c-1.41.9-4.459.873-5.757-1.235a3.445,3.445,0,0,1,2.329-5.228c1.069-.258,2.171-.384,3.257-.57.092-.016.183-.033.275-.047a.809.809,0,0,0,.771-.587,1.018,1.018,0,0,0-.295-1.023,2.073,2.073,0,0,0-2.085-.428,1.811,1.811,0,0,0-1.338,1.345c-.016.05-.013.106-.026.157a1.142,1.142,0,0,1-.063.143c-.513-.1-1.03-.2-1.547-.3s-1.011-.209-1.546-.321a3.69,3.69,0,0,1,.859-2.075,4.789,4.789,0,0,1,2.823-1.678,7.23,7.23,0,0,1,4.122.264,3.9,3.9,0,0,1,2.629,3.781c.059,1.648.01,3.3.024,4.95C613.494,466.757,613.532,467.766,613.558,468.808Zm-3.61-5.176c-.423.063-.82.1-1.207.185a14.688,14.688,0,0,0-1.837.468c-.449.161-.557.6-.548,1.059a1.131,1.131,0,0,0,.585,1.021,2.235,2.235,0,0,0,2.658-.719A3.178,3.178,0,0,0,609.948,463.633Z" transform="translate(-722.065 -62.316)" fill="#3da2ff"/>
    <path id="Path_2695" data-name="Path 2695" d="M927.014,468.379h-3.2c-.041-.4-.081-.794-.125-1.228a.862.862,0,0,0-.154.129c-1.345,1.934-4.918,1.869-6.417.158a3.423,3.423,0,0,1,1.457-5.554,29.724,29.724,0,0,1,3.236-.656c.274-.053.553-.081.826-.138a.888.888,0,0,0,.49-1.563,2.026,2.026,0,0,0-2.031-.486,1.8,1.8,0,0,0-1.411,1.316c-.034.1-.05.2-.086.359l-3.123-.629a3.931,3.931,0,0,1,1.954-3.035,6.527,6.527,0,0,1,6.343-.224,3.675,3.675,0,0,1,2.132,3.409c.064,1.581.021,3.167.037,4.751C926.958,466.1,926.99,467.218,927.014,468.379Zm-3.545-5.182c-.8.125-1.5.213-2.187.349a3.561,3.561,0,0,0-.966.34,1.047,1.047,0,0,0-.5,1.092,1.114,1.114,0,0,0,.635.99,2.1,2.1,0,0,0,2.853-1.3A10.782,10.782,0,0,0,923.469,463.2Z" transform="translate(-1010.505 -61.892)" fill="#3da2ff"/>
    <path id="Path_2696" data-name="Path 2696" d="M85.828,460.9l-3.058.918a7.023,7.023,0,0,0-1.007-1.227,2.653,2.653,0,0,0-4.147,1.578,4.649,4.649,0,0,0-.006,1.773,2.561,2.561,0,0,0,2.222,2.052,2.5,2.5,0,0,0,2.83-1.444c.053-.1.243-.226.33-.2.969.276,1.931.579,2.956.894a7.773,7.773,0,0,1-.28.792,5.576,5.576,0,0,1-5.253,3.32,6.287,6.287,0,1,1-.163-12.569,5.753,5.753,0,0,1,4.638,2.085A4.625,4.625,0,0,1,85.828,460.9Z" transform="translate(-235.461 -62.508)" fill="#0d1136"/>
    <path id="Path_2697" data-name="Path 2697" d="M766.619,461.354h9.674c.006.126.018.252.018.379,0,.639-.038,1.281.013,1.916a1.424,1.424,0,0,1-.483,1.185c-1.572,1.627-3.123,3.274-4.681,4.914-.088.093-.169.192-.307.351h5.519v3.1h-9.9c-.01-.15-.026-.291-.026-.432,0-.732.022-1.465-.01-2.2a1.241,1.241,0,0,1,.4-.983c1.526-1.6,3.036-3.209,4.551-4.817.08-.085.155-.175.279-.317h-5.053Z" transform="translate(-872.672 -66.714)" fill="#3da2ff"/>
    <path id="Path_2698" data-name="Path 2698" d="M-.7,473.33V461.509H2.867V473.33Z" transform="translate(-166.815 -66.856)" fill="#0d1136"/>
    <path id="Path_2699" data-name="Path 2699" d="M-.519,390.986a2.1,2.1,0,0,1-2.148,2.1,2.139,2.139,0,0,1-2.078-2.14,2.141,2.141,0,0,1,2.126-2.093A2.082,2.082,0,0,1-.519,390.986Z" transform="translate(-163.095)" fill="#3da2ff"/>
  </g>
</svg> -->
<?xml version="1.0" encoding="UTF-8"?>
<svg width="407px" height="106px" viewBox="0 0 407 106" version="1.1" xmlns="http://www.w3.org/2000/svg" xmlns:xlink="http://www.w3.org/1999/xlink">
    <title>trendy</title>
    <g id="makers" stroke="none" stroke-width="1" fill="none" fill-rule="evenodd">
        <path d="M21.4443359,78.7578125 C26.9781901,78.7578125 33.1468099,76.8697917 39.9501953,73.09375 C42.8798828,71.4335938 46.2734375,69.171224 50.1308594,66.3066406 C53.9882812,63.4420573 57.3655599,60.5286458 60.2626953,57.5664062 L60.2626953,57.5664062 L62.6552734,55.0761719 C65.6500651,51.7233073 67.1474609,48.9889323 67.1474609,46.8730469 C67.1474609,44.6595052 65.5524089,43.5527344 62.3623047,43.5527344 C61.3531901,43.5527344 59.9697266,44.1386719 58.2119141,45.3105469 C55.9332682,46.905599 54.7939453,47.703125 54.7939453,47.703125 C53.5895182,48.5820312 52.0758464,49.8678385 50.2529297,51.5605469 C48.430013,53.2532552 45.9235026,55.0924479 42.7333984,57.078125 C40.9755859,58.1523438 39.1770833,59.0638021 37.3378906,59.8125 C35.4986979,60.5611979 33.6188151,60.9355469 31.6982422,60.9355469 C29.7776693,60.9355469 28.2395833,60.203125 27.0839844,58.7382812 C25.9283854,57.2734375 25.3505859,55.4505208 25.3505859,53.2695312 C25.3505859,51.0885417 26.4410807,47.5403646 28.6220703,42.625 L28.6220703,42.625 L29.6962891,40.2324219 C29.9241536,39.7115885 30.3147786,38.9466146 30.8681641,37.9375 L30.8681641,37.9375 L33.0654297,33.8847656 C34.0094401,32.1920573 34.6767578,31.2480469 35.0673828,31.0527344 L35.0673828,31.0527344 L52.9384766,31.0039062 C61.7600911,31.0039062 66.1708984,28.5299479 66.1708984,23.5820312 C66.1708984,21.4986979 65.1617839,20.4570312 63.1435547,20.4570312 L63.1435547,20.4570312 L39.9501953,20.5058594 L42.6845703,13.8652344 C43.0426432,12.9863281 43.2216797,12.2864583 43.2216797,11.765625 C43.2216797,10.5286458 42.4241536,9.38932292 40.8291016,8.34765625 C40.0152995,7.859375 39.0143229,7.45247396 37.8261719,7.12695312 C36.6380208,6.80143229 35.1731771,6.63867188 33.4316406,6.63867188 C31.6901042,6.63867188 30.1764323,7.17578125 28.890625,8.25 C27.6048177,9.32421875 26.3271484,11.000651 25.0576172,13.2792969 L25.0576172,13.2792969 L22.0791016,18.40625 C21.2978516,19.7083333 20.7770182,20.4082031 20.5166016,20.5058594 L20.5166016,20.5058594 L8.55371094,20.4570312 C6.40527344,20.4570312 4.77766927,20.6848958 3.67089844,21.140625 C2.88964844,21.4335938 2.23860677,21.905599 1.71777344,22.5566406 C1.1969401,23.2076823 0.936523438,24.2330729 0.936523438,25.6328125 C0.936523438,27.0325521 1.5875651,28.2858073 2.88964844,29.3925781 C4.19173177,30.499349 6.03092448,31.0527344 8.40722656,31.0527344 L8.40722656,31.0527344 L14.7060547,31.0527344 C14.7060547,31.3782552 14.4130859,32.094401 13.8271484,33.2011719 C11.5810547,37.2376302 9.5139974,42.1367188 7.62597656,47.8984375 C6.68196615,50.7304688 5.91699219,53.6276042 5.33105469,56.5898438 C4.74511719,59.5520833 4.45214844,62.530599 4.45214844,65.5253906 C4.45214844,68.5201823 5.86816406,71.3684896 8.70019531,74.0703125 C11.9879557,77.1953125 16.2360026,78.7578125 21.4443359,78.7578125 Z M80.2333984,78.6601562 C85.1162109,78.6601562 90.4710286,77.2441406 96.2978516,74.4121094 C98.8694661,73.1751302 101.310872,71.7835286 103.62207,70.2373047 C105.933268,68.6910807 108.041016,67.1611328 109.945312,65.6474609 C111.849609,64.1337891 113.501628,62.7259115 114.901367,61.4238281 C116.301107,60.1217448 117.741536,58.7057292 119.222656,57.1757812 C120.703776,55.6458333 122.079102,53.8391927 123.348633,51.7558594 C124.618164,49.672526 125.25293,48.0123698 125.25293,46.7753906 C125.25293,45.5384115 124.878581,44.6676432 124.129883,44.1630859 C123.381185,43.6585286 122.420898,43.40625 121.249023,43.40625 C120.077148,43.40625 118.107747,44.3828125 115.34082,46.3359375 L115.34082,46.3359375 L111.288086,49.2167969 C109.79069,50.3235677 106.812174,52.3417969 102.352539,55.2714844 C100.724935,56.313151 99.2763672,57.2001953 98.0068359,57.9326172 C96.7373047,58.6650391 95.671224,59.2184245 94.8085938,59.5927734 C93.9459635,59.9671224 93.1728516,60.1542969 92.4892578,60.1542969 C91.8056641,60.1542969 91.1708984,59.9182943 90.5849609,59.4462891 C89.9990234,58.9742839 89.7060547,58.4290365 89.7060547,57.8105469 C89.7060547,57.1920573 90.8616536,55.6946615 93.1728516,53.3183594 L93.1728516,53.3183594 L96.3955078,50.0957031 C100.855143,45.766276 103.084961,42.5924479 103.084961,40.5742188 C103.084961,38.6210938 102.401367,36.8307292 101.03418,35.203125 C100.41569,34.4869792 99.7076823,33.9091797 98.9101562,33.4697266 C98.1126302,33.0302734 97.4046224,32.8105469 96.7861328,32.8105469 C96.1676432,32.8105469 95.3212891,32.859375 94.2470703,32.9570312 L94.2470703,32.9570312 L87.3134766,33.4453125 C86.2067057,33.5429688 85.3929036,33.5917969 84.8720703,33.5917969 C84.351237,33.5917969 83.8304036,33.1848958 83.3095703,32.3710938 L83.3095703,32.3710938 L82.6259766,31.296875 C81.6494141,29.734375 79.7776693,28.953125 77.0107422,28.953125 C73.8857422,28.953125 70.1422526,30.4505208 65.7802734,33.4453125 C61.711263,36.2122396 58.1468099,39.5 55.0869141,43.3085938 C51.929362,47.2473958 50.3505859,50.5351562 50.3505859,53.171875 C50.3505859,55.6458333 50.9202474,57.5989583 52.0595703,59.03125 C52.5804036,59.6822917 53.1419271,60.1542969 53.7441406,60.4472656 C54.3463542,60.7402344 54.9567057,60.8867188 55.5751953,60.8867188 C57.1376953,60.8867188 60.4580078,58.5755208 65.5361328,53.953125 L65.5361328,53.953125 L70.3212891,49.5585938 C72.241862,47.8658854 73.4951172,47.0195312 74.0810547,47.0195312 C75.4482422,47.0195312 76.4817708,47.1009115 77.1816406,47.2636719 C77.8815104,47.4264323 78.2314453,47.8170573 78.2314453,48.4355469 C78.2314453,48.8261719 77.2548828,50.046875 75.3017578,52.0976562 C72.9905599,54.4739583 70.9886068,57.2083333 69.2958984,60.3007812 C68.4495443,61.8632812 67.7659505,63.4339193 67.2451172,65.0126953 C66.7242839,66.5914714 66.4638672,68.0644531 66.4638672,69.4316406 C66.4638672,70.7988281 66.7080078,72.0358073 67.1962891,73.1425781 C68.7587891,76.8209635 73.1044922,78.6601562 80.2333984,78.6601562 Z M128.475586,78.2207031 C135.767253,78.2207031 143.30306,76.625651 151.083008,73.4355469 C154.598633,72.0032552 157.918945,70.3919271 161.043945,68.6015625 C164.168945,66.8111979 167.025391,65.0045573 169.613281,63.1816406 C172.201172,61.358724 174.463542,59.6171875 176.400391,57.9570312 C178.33724,56.296875 180.054362,54.6936849 181.551758,53.1474609 C183.049154,51.601237 184.196615,49.9410807 184.994141,48.1669922 C185.791667,46.3929036 186.19043,44.9199219 186.19043,43.7480469 C186.19043,41.9902344 185.40918,41.1113281 183.84668,41.1113281 C183.163086,41.1113281 182.36556,41.2578125 181.454102,41.5507812 C178.687174,42.5273438 176.408529,43.8457031 174.618164,45.5058594 C171.200195,48.5332031 167.163737,51.4954427 162.508789,54.3925781 C160.425456,55.6946615 158.366536,56.8909505 156.332031,57.9814453 C154.297526,59.0719401 152.385091,60.0078125 150.594727,60.7890625 C148.804362,61.5703125 147.201172,62.172526 145.785156,62.5957031 C144.369141,63.0188802 142.774089,63.2304688 141,63.2304688 C139.225911,63.2304688 137.313477,62.6933594 135.262695,61.6191406 C141.90332,58.7871094 146.851237,56.2317708 150.106445,53.953125 L150.106445,53.953125 L151.864258,52.78125 C152.710612,52.2278646 153.654622,51.5442708 154.696289,50.7304688 C161.239258,45.7174479 164.510742,41.1438802 164.510742,37.0097656 C164.510742,34.3730469 163.436523,32.2734375 161.288086,30.7109375 C159.269857,29.2786458 156.795898,28.5625 153.866211,28.5625 C150.25293,28.5625 145.842122,29.4414062 140.633789,31.1992188 C132.072591,34.0963542 124.63444,38.1816406 118.319336,43.4550781 C110.995117,49.5748698 107.333008,56.0364583 107.333008,62.8398438 C107.333008,67.1692708 109.513997,70.8476562 113.875977,73.875 C118.042643,76.7721354 122.90918,78.2207031 128.475586,78.2207031 Z M129.989258,54.8320312 C129.761393,54.0182292 129.647461,52.8626302 129.647461,51.3652344 C129.647461,49.8678385 130.510091,48.09375 132.235352,46.0429688 C132.984049,45.1315104 133.854818,44.2770182 134.847656,43.4794922 C135.840495,42.6819661 136.874023,41.9983724 137.948242,41.4287109 C139.022461,40.8590495 140.088542,40.4114583 141.146484,40.0859375 C142.204427,39.7604167 143.172852,39.5976562 144.051758,39.5976562 C144.930664,39.5976562 145.760742,40.0533854 146.541992,40.9648438 C146.867513,41.3229167 147.12793,41.7298177 147.323242,42.1855469 C147.518555,42.641276 147.616211,43.0400391 147.616211,43.3818359 C147.616211,43.7236328 147.160482,44.3339844 146.249023,45.2128906 C145.337565,46.0917969 141.594076,48.4192708 135.018555,52.1953125 C134.334961,52.5859375 133.553711,53.0091146 132.674805,53.4648438 L132.674805,53.4648438 L129.989258,54.8320312 Z M178.084961,77.0488281 C179.256836,77.0488281 181.519206,76.0071615 184.87207,73.9238281 C186.27181,73.0449219 191.626628,69.5130208 200.936523,63.328125 C202.694336,62.1888021 204.297526,61.2203776 205.746094,60.4228516 C207.194661,59.6253255 208.447917,59.0556641 209.505859,58.7138672 C210.563802,58.3720703 211.27181,58.3476562 211.629883,58.640625 C211.987956,58.9335938 212.329753,60.3821615 212.655273,62.9863281 C212.785482,64.0605469 212.99707,65.1835938 213.290039,66.3554688 C214.331706,70.8802083 216.887044,73.1425781 220.956055,73.1425781 C226.782878,73.1425781 233.374674,70.8313802 240.731445,66.2089844 C247.079102,62.2376302 252.075846,58.0384115 255.72168,53.6113281 C258.163086,50.9095052 259.383789,48.3541667 259.383789,45.9453125 C259.383789,44.8710938 259.164062,44.0898438 258.724609,43.6015625 C258.285156,43.1132812 257.24349,42.8691406 255.599609,42.8691406 C253.955729,42.8691406 251.81543,43.7480469 249.178711,45.5058594 L249.178711,45.5058594 L247.860352,46.6289062 C241.089518,52.3580729 235.588216,55.2226562 231.356445,55.2226562 C229.631185,55.2226562 228.768555,53.7415365 228.768555,50.7792969 C228.768555,50.063151 228.817383,49.3144531 228.915039,48.5332031 L228.915039,48.5332031 L229.110352,46.2382812 C229.208008,45.4895833 229.297526,44.7897135 229.378906,44.1386719 C229.460286,43.4876302 229.500977,42.9342448 229.500977,42.4785156 C229.500977,41.078776 228.508138,39.4348958 226.522461,37.546875 C225.448242,36.5052083 224.260091,35.984375 222.958008,35.984375 C220.516602,35.984375 216.708008,37.6770833 211.532227,41.0625 L211.532227,41.0625 L207.040039,44.1875 L198.055664,50.8769531 C196.59082,51.983724 195.484049,52.5371094 194.735352,52.5371094 C194.051758,52.5371094 193.612305,52.0488281 193.416992,51.0722656 C193.38444,50.811849 193.888997,49.6888021 194.930664,47.703125 L194.930664,47.703125 L196.395508,44.8222656 C198.511393,40.7532552 199.569336,37.8235677 199.569336,36.0332031 C199.569336,33.1035156 197.339518,31.6386719 192.879883,31.6386719 C190.438477,31.6386719 188.159831,32.1432292 186.043945,33.1523438 C181.877279,35.0729167 178.361654,38.5234375 175.49707,43.5039062 C171.200195,50.8932292 169.051758,59.5195312 169.051758,69.3828125 C169.051758,71.1080729 169.930664,72.8007812 171.688477,74.4609375 C172.534831,75.2096354 173.519531,75.828125 174.642578,76.3164062 C175.765625,76.8046875 176.913086,77.0488281 178.084961,77.0488281 Z M254.647461,77.8789062 C260.539388,77.8789062 269.458659,73.7447917 281.405273,65.4765625 L281.405273,65.4765625 L285.750977,62.3515625 C286.467122,65.9973958 287.394857,68.7643229 288.53418,70.6523438 C290.422201,73.7773438 293.22168,75.3398438 296.932617,75.3398438 C301.847982,75.3398438 308.358398,72.1660156 316.463867,65.8183594 C323.267253,60.4472656 327.75944,56.2480469 329.94043,53.2207031 C333.06543,48.891276 334.62793,45.5384115 334.62793,43.1621094 C334.62793,41.6647135 333.895508,40.9160156 332.430664,40.9160156 C331.974935,40.9160156 331.372721,41.0625 330.624023,41.3554688 C327.987305,42.3320312 325.318034,44.0247396 322.616211,46.4335938 L322.616211,46.4335938 L316.854492,51.3164062 C312.362305,54.9296875 309.253581,56.7363281 307.52832,56.7363281 C304.500977,56.7363281 302.987305,54.6529948 302.987305,50.4863281 C302.987305,47.5891927 303.931315,44.1061198 305.819336,40.0371094 C306.893555,38.344401 308.130534,36.6028646 309.530273,34.8125 L309.530273,34.8125 L317.879883,23.7773438 C319.24707,21.8567708 320.459635,19.9199219 321.517578,17.9667969 C322.575521,16.0136719 323.430013,14.0442708 324.081055,12.0585938 C324.732096,10.0729167 325.057617,8.19303385 325.057617,6.41894531 C325.057617,4.64485677 323.885742,3.02539062 321.541992,1.56054688 C320.239909,0.746744792 318.482096,0.33984375 316.268555,0.33984375 C310.213867,0.33984375 304.191732,6.08528646 298.202148,17.5761719 C294.816732,23.2727865 291.74056,30.4830729 288.973633,39.2070312 C287.476237,44.0898438 286.727539,46.53125 286.727539,46.53125 C284.937174,48.0611979 282.560872,49.7539062 279.598633,51.609375 C276.831706,53.3020833 275.448242,54.1484375 275.448242,54.1484375 C270.760742,56.9153646 267.635742,58.2988281 266.073242,58.2988281 C264.185221,58.2988281 263.241211,57.6233724 263.241211,56.2724609 C263.241211,54.9215495 264.575846,53.1067708 267.245117,50.828125 C270.988607,48.1914062 274.829753,45.9453125 278.768555,44.0898438 C280.233398,43.40625 281.470378,42.8691406 282.479492,42.4785156 C283.488607,42.0878906 284.204753,41.7786458 284.62793,41.5507812 C285.995117,40.8671875 286.678711,39.9720052 286.678711,38.8652344 C286.678711,37.4980469 285.604492,36.0820312 283.456055,34.6171875 C282.544596,34.03125 281.625,33.5511068 280.697266,33.1767578 C279.769531,32.8024089 278.752279,32.6152344 277.645508,32.6152344 C276.538737,32.6152344 273.902018,33.3802083 269.735352,34.9101562 C259.481445,38.6536458 250.903971,43.422526 244.00293,49.2167969 C240.617513,52.0813802 238.924805,55.9876302 238.924805,60.9355469 C238.924805,65.4277344 240.226888,69.2851562 242.831055,72.5078125 C245.793294,76.0885417 249.732096,77.8789062 254.647461,77.8789062 Z M349.47168,105.808594 C350.806315,105.808594 352.140951,104.96224 353.475586,103.269531 C354.094076,102.488281 354.728841,101.552409 355.379883,100.461914 C356.030924,99.3714193 356.690104,98.3460286 357.357422,97.3857422 C358.02474,96.4254557 358.960612,94.96875 360.165039,93.015625 C361.174154,92.0065104 362.671549,90.6393229 364.657227,88.9140625 L364.657227,88.9140625 L387.118164,69.9199219 L398.641602,59.9101562 C399.780924,58.8684896 400.838867,57.7454427 401.81543,56.5410156 C405.005534,52.6998698 406.600586,49.5585938 406.600586,47.1171875 C406.600586,44.7408854 405.363607,43.5527344 402.889648,43.5527344 C401.750326,43.5527344 400.318034,44.203776 398.592773,45.5058594 L398.592773,45.5058594 L381.600586,60.0566406 L373.299805,67.5761719 L375.301758,63.2792969 C378.101237,57.2571615 380.038086,52.4557292 381.112305,48.875 C381.698242,46.9544271 382.129557,45.2210286 382.40625,43.6748047 C382.682943,42.1285807 382.821289,40.7125651 382.821289,39.4267578 C382.821289,38.1409505 382.186523,36.9283854 380.916992,35.7890625 C380.298503,35.2356771 379.582357,34.7799479 378.768555,34.421875 C377.954753,34.0638021 377.027018,33.8847656 375.985352,33.8847656 C374.943685,33.8847656 372.811523,35.4635417 369.588867,38.6210938 L369.588867,38.6210938 L364.852539,43.40625 C355.152018,53.4648438 348.283529,58.4941406 344.24707,58.4941406 C342.261393,58.4941406 341.268555,57.7454427 341.268555,56.2480469 C341.268555,53.4811198 343.124023,49.9573568 346.834961,45.6767578 C350.545898,41.3961589 352.401367,38.1653646 352.401367,35.984375 C352.401367,32.5013021 350.171549,30.7597656 345.711914,30.7597656 C341.252279,30.7597656 336.906576,32.3222656 332.674805,35.4472656 C328.670898,38.3769531 325.448242,42.250651 323.006836,47.0683594 C320.467773,51.983724 319.198242,56.9641927 319.198242,62.0097656 C319.198242,66.7623698 320.239909,70.6197917 322.323242,73.5820312 C323.397461,75.0794271 324.748372,76.2757161 326.375977,77.1708984 C328.003581,78.0660807 329.89974,78.5136719 332.064453,78.5136719 C334.229167,78.5136719 336.279948,78.2776693 338.216797,77.8056641 C340.153646,77.3336589 342.538086,76.3733724 345.370117,74.9248047 C348.202148,73.476237 352.108398,70.5058594 357.088867,66.0136719 L357.088867,66.0136719 L346.737305,85.1054688 C345.272461,87.9375 344.08431,90.4521484 343.172852,92.6494141 C342.261393,94.8466797 341.805664,96.7753906 341.805664,98.4355469 C341.805664,100.095703 343.010091,101.983724 345.418945,104.099609 C346.721029,105.238932 348.07194,105.808594 349.47168,105.808594 Z" id="trendy" fill="#3DA2FF" fill-rule="nonzero"></path>
    </g>
</svg>